
        <svg xmlns="http://www.w3.org/2000/svg" xmlns:xlink="http://www.w3.org/1999/xlink" version="1.1" width="3200" height="2245.374805217458" viewBox="0 0 3200 2245.374805217458">
			
			<g transform="scale(10) translate(10, 10)">
				<defs id="SvgjsDefs1122"/><g id="SvgjsG1123" featureKey="ghXSps-0" transform="matrix(1.5,0,0,1.5,75.00001001358032,-18)" fill="#000"><g xmlns="http://www.w3.org/2000/svg" transform="translate(0,-952.36218)"><path d="m 60.7828,964.36215 27.1809,0.8834 -27.1809,25.9958 z m -1.9745,1.4513 0,26.7845 -25.2681,0 c 8.6166,-8.7334 16.8796,-17.8103 25.2681,-26.7845 z m 27.7053,3.628 3.4864,1.1989 -12.5877,7.4768 z m -68.1835,2.9656 5.5226,0 12.8654,14.0705 -5.9854,6.1204 -12.4026,0 c 9e-4,-6.7347 0,-13.4597 0,-20.1909 z m -1.9746,1.2304 0,5.8364 -6.3555,0 z m 3.363,20.9796 38.627,0 -10.7675,29.43465 z m 39.0898,4.54286 0,41.20229 -12.5878,-6.8775 c 4.1972,-11.443 8.3886,-22.879 12.5878,-34.32479 z" style="text-indent:0;text-transform:none;direction:ltr;block-progression:tb;baseline-shift:baseline;color:;enable-background:accumulate;" fill-opacity="1" stroke="none" marker="none" visibility="visible" display="inline" overflow="visible"/></g></g><g id="SvgjsG1124" featureKey="anH1Ye-0" transform="matrix(3.5126275698778535,0,0,3.5126275698778535,-2.2967184129858307,116.45849917212738)" fill="#000"><path d="M11.4 12.42 q0.86 0.54 1.31 1.32 t0.45 1.74 q0 2.26 -1.72 3.46 q-1.16 0.84 -3.14 1.06 l-0.08 0 q-0.28 0 -0.46 -0.18 q-0.24 -0.22 -0.24 -0.52 l0 -1.44 q0 -0.26 0.18 -0.46 t0.44 -0.24 q0.94 -0.1 1.46 -0.44 q0.4 -0.24 0.54 -0.62 q0.08 -0.22 0.08 -0.56 q0 -0.22 -0.08 -0.38 t-0.28 -0.3 q-0.58 -0.4 -1.5 -0.68 l-0.32 -0.1 q-1 -0.28 -1.84 -0.46 q-0.18 -0.04 -0.58 -0.14 l-0.22 -0.06 q-0.72 -0.18 -1.52 -0.5 q-1.18 -0.5 -1.94 -1.26 q-0.88 -0.88 -0.88 -2.32 q0 -1.98 1.52 -3.22 q1.04 -0.88 2.92 -1.12 q0.32 -0.04 0.55 0.18 t0.23 0.52 l0 1.44 q0 0.26 -0.16 0.46 t-0.41 0.23 t-0.51 0.11 q-0.58 0.22 -0.82 0.43 t-0.34 0.43 q-0.1 0.34 -0.1 0.64 q0 0.16 0.18 0.34 q0.28 0.28 0.82 0.5 q0.24 0.1 0.84 0.3 l2.5 0.62 l0.12 0.04 q0.94 0.26 1.36 0.4 q0.94 0.32 1.64 0.78 z M8.06 7.9 q-0.24 -0.06 -0.39 -0.25 t-0.15 -0.45 l0 -1.46 q0 -0.32 0.26 -0.54 q0.1 -0.1 0.26 -0.13 t0.3 -0.01 q1.76 0.28 2.86 1.2 q1.5 1.24 1.6 3.16 q0.02 0.28 -0.19 0.51 t-0.51 0.23 l-1.56 0 q-0.26 0 -0.46 -0.18 t-0.22 -0.44 q-0.08 -0.52 -0.34 -0.86 q-0.42 -0.5 -1.3 -0.76 q-0.06 0 -0.08 -0.02 l-0.08 0 z M5.72 17.08 q0.24 0.04 0.4 0.24 t0.16 0.44 l0 1.48 q0 0.32 -0.24 0.54 q-0.2 0.16 -0.46 0.16 l-0.1 0 q-1.86 -0.28 -3.06 -1.22 q-1.56 -1.24 -1.76 -3.46 q-0.04 -0.32 0.18 -0.55 t0.52 -0.23 l1.58 0 q0.28 0 0.48 0.19 t0.22 0.47 q0.06 1 0.98 1.54 q0.42 0.24 1.1 0.4 z M25.939999999999998 5 q0.3 0 0.5 0.21 t0.2 0.49 l0 1.44 q0 0.28 -0.2 0.49 t-0.5 0.21 l-7.56 0 l0 3.06 l6.68 0 q0.3 0 0.5 0.21 t0.2 0.49 l0 1.46 q0 0.28 -0.2 0.49 t-0.5 0.21 l-6.68 0 l0 3.08 l7.56 0 q0.3 0 0.5 0.21 t0.2 0.49 l0 1.44 q0 0.28 -0.2 0.49 t-0.5 0.21 l-9.76 0 q-0.28 0 -0.49 -0.21 t-0.21 -0.49 l0 -13.28 q0 -0.28 0.21 -0.49 t0.49 -0.21 l9.76 0 z M43.08 12 l0 0.08 q0.02 0.14 0.02 0.42 q0 0.44 -0.06 1.02 q-0.3 2.52 -2 4.28 q-2.1 2.2 -5.38 2.2 t-5.38 -2.2 q-2.06 -2.16 -2.06 -5.3 t2.06 -5.3 q2.1 -2.2 5.38 -2.2 t5.38 2.2 q0.8 0.82 1.32 1.9 q0.1 0.16 0.1 0.38 q0 0.28 -0.2 0.48 t-0.5 0.2 l-1.68 0 q-0.18 0 -0.34 -0.09 t-0.24 -0.23 q-0.28 -0.42 -0.52 -0.66 q-1.26 -1.32 -3.32 -1.32 t-3.3 1.31 t-1.24 3.34 t1.22 3.31 q1.26 1.32 3.32 1.32 t3.32 -1.32 q0.68 -0.7 0.98 -1.68 l-4.18 0 q-0.28 0 -0.49 -0.21 t-0.21 -0.49 l0 -1.4 q0 -0.28 0.21 -0.49 t0.49 -0.21 l6.6 0 q0.28 0 0.48 0.19 t0.22 0.47 z M57.14 5 q0.28 0 0.49 0.21 t0.21 0.49 l0 7.56 q0 2.92 -1.78 4.75 t-4.57 1.83 t-4.57 -1.83 t-1.78 -4.75 l0 -7.56 q0 -0.28 0.21 -0.49 t0.49 -0.21 l1.5 0 q0.28 0 0.49 0.21 t0.21 0.49 l0 7.6 q0 1.86 1.06 2.84 q0.9 0.84 2.38 0.84 t2.4 -0.84 q1.06 -1 1.06 -2.84 l0 -7.6 q0 -0.28 0.2 -0.49 t0.48 -0.21 l1.52 0 z M70.36 16.84 q0.3 0 0.5 0.21 t0.2 0.49 l0 1.44 q0 0.28 -0.2 0.49 t-0.5 0.21 l-8.74 0 q-0.28 0 -0.49 -0.21 t-0.21 -0.49 l0 -13.28 q0 -0.28 0.21 -0.49 t0.49 -0.21 l1.5 0 q0.28 0 0.49 0.21 t0.21 0.49 l0 11.14 l6.54 0 z M80.36 5.42 l5.6 13.22 q0.1 0.16 0.1 0.34 q0 0.28 -0.2 0.49 t-0.5 0.21 l-1.66 0 q-0.22 0 -0.39 -0.11 t-0.25 -0.31 l-1.46 -3.44 l-5.66 0 l-1.44 3.44 q-0.08 0.2 -0.25 0.31 t-0.39 0.11 l-1.66 0 q-0.18 0 -0.34 -0.09 t-0.25 -0.23 t-0.11 -0.31 t0.06 -0.33 l5.64 -13.3 q0.08 -0.2 0.25 -0.31 t0.39 -0.11 l1.88 0 q0.22 0 0.39 0.11 t0.25 0.31 z M78.78 9.06 l-1.66 3.98 l3.32 0 z"/></g><g id="SvgjsG1125" featureKey="XxVAgm-0" transform="matrix(0.4465332284651306,0,0,0.4465332284651306,29.464160104549478,194.4279685018375)" fill="#000"><path d="M5.9 6 c3.14 0 5.06 1.92 5.06 4.62 s-1.92 4.5 -5.06 4.5 l-2.5 0 l0 4.88 l-2.2 0 l0 -14 l4.7 0 z M5.8 13.2 c1.78 0 2.96 -0.84 2.96 -2.58 s-1.18 -2.58 -2.96 -2.58 l-2.4 0 l0 5.16 l2.4 0 z M26.463 20 l-2.36 0 l-3.3 -4.88 l-0.24 0 l-2.5 0 l0 4.88 l-2.2 0 l0 -14 l4.7 0 c3.14 0 5.06 1.92 5.06 4.62 c0 1.96 -1.02 3.46 -2.78 4.12 z M18.063 8.04 l0 5.16 l2.4 0 c1.78 0 2.96 -0.84 2.96 -2.58 s-1.18 -2.58 -2.96 -2.58 l-2.4 0 z M38.166000000000004 5.800000000000001 c3.76 0 7.2 2.96 7.2 7.2 s-3.44 7.2 -7.2 7.2 s-7.2 -2.96 -7.2 -7.2 s3.44 -7.2 7.2 -7.2 z M38.166000000000004 18.12 c2.58 0 4.92 -2.12 4.92 -5.12 s-2.34 -5.12 -4.92 -5.12 s-4.92 2.12 -4.92 5.12 s2.34 5.12 4.92 5.12 z M54.889 5.76 c2.3 0 3.88 1.48 4.54 2.92 l-1.64 0.94 c-0.7 -1.18 -1.6 -1.9 -2.9 -1.9 s-2.22 0.76 -2.22 1.8 c0 0.98 0.62 1.58 1.96 2.08 l0.98 0.36 c2.78 1.02 4.2 2.22 4.2 4.32 c0 2.58 -2.46 4.02 -4.84 4.02 c-2.44 0 -4.4 -1.46 -5 -3.44 l1.72 -0.88 c0.5 1.28 1.58 2.32 3.28 2.32 c1.4 0 2.56 -0.74 2.56 -2 c0 -1.34 -0.9 -1.88 -2.5 -2.48 l-0.96 -0.36 c-2.1 -0.78 -3.58 -1.84 -3.58 -4.02 c0 -2.12 1.92 -3.68 4.4 -3.68 z M69.412 6 c3.14 0 5.06 1.92 5.06 4.62 s-1.92 4.5 -5.06 4.5 l-2.5 0 l0 4.88 l-2.2 0 l0 -14 l4.7 0 z M69.31200000000001 13.2 c1.78 0 2.96 -0.84 2.96 -2.58 s-1.18 -2.58 -2.96 -2.58 l-2.4 0 l0 5.16 l2.4 0 z M81.57500000000002 17.96 l6.34 0 l0 2.04 l-6.74 0 l-1.8 0 l0 -14 l2.2 0 l6.16 0 l0 2.04 l-6.16 0 l0 3.92 l4.74 0 l0 2 l-4.74 0 l0 4 z M103.61800000000001 20 l-2.36 0 l-3.3 -4.88 l-0.24 0 l-2.5 0 l0 4.88 l-2.2 0 l0 -14 l4.7 0 c3.14 0 5.06 1.92 5.06 4.62 c0 1.96 -1.02 3.46 -2.78 4.12 z M95.21800000000002 8.04 l0 5.16 l2.4 0 c1.78 0 2.96 -0.84 2.96 -2.58 s-1.18 -2.58 -2.96 -2.58 l-2.4 0 z M136.18400000000003 6 l-4.56 14 l-1.52 0 l-3.6 -10.04 l-3.6 10.04 l-1.52 0 l-4.56 -14 l2.3 0 l3.1 9.6 l3.46 -9.6 l1.64 0 l3.46 9.6 l3.1 -9.6 l2.3 0 z M143.187 6 l0 14 l-2.2 0 l0 -14 l2.2 0 z M157.83 6 l0 2.04 l-3.72 0 l0 11.96 l-2.2 0 l0 -11.96 l-3.72 0 l0 -2.04 l9.64 0 z M171.513 6 l2.2 0 l0 14 l-2.2 0 l0 -5.92 l-6.48 0 l0 5.92 l-2.2 0 l0 -14 l2.2 0 l0 6.04 l6.48 0 l0 -6.04 z M192.819 6 c3.14 0 5.06 1.92 5.06 4.62 s-1.92 4.5 -5.06 4.5 l-2.5 0 l0 4.88 l-2.2 0 l0 -14 l4.7 0 z M192.719 13.2 c1.78 0 2.96 -0.84 2.96 -2.58 s-1.18 -2.58 -2.96 -2.58 l-2.4 0 l0 5.16 l2.4 0 z M211.022 6 l2.2 0 l0 8.92 c0 3.42 -2.34 5.38 -5.22 5.38 s-5.22 -1.96 -5.22 -5.38 l0 -8.92 l2.2 0 l0 8.92 c0 2.38 1.46 3.3 3.02 3.3 s3.02 -0.92 3.02 -3.3 l0 -8.92 z M229.225 20 l-2.36 0 l-3.3 -4.88 l-0.24 0 l-2.5 0 l0 4.88 l-2.2 0 l0 -14 l4.7 0 c3.14 0 5.06 1.92 5.06 4.62 c0 1.96 -1.02 3.46 -2.78 4.12 z M220.825 8.04 l0 5.16 l2.4 0 c1.78 0 2.96 -0.84 2.96 -2.58 s-1.18 -2.58 -2.96 -2.58 l-2.4 0 z M238.72799999999998 6 c3.14 0 5.06 1.92 5.06 4.62 s-1.92 4.5 -5.06 4.5 l-2.5 0 l0 4.88 l-2.2 0 l0 -14 l4.7 0 z M238.628 13.2 c1.78 0 2.96 -0.84 2.96 -2.58 s-1.18 -2.58 -2.96 -2.58 l-2.4 0 l0 5.16 l2.4 0 z M255.59099999999998 5.800000000000001 c3.76 0 7.2 2.96 7.2 7.2 s-3.44 7.2 -7.2 7.2 s-7.2 -2.96 -7.2 -7.2 s3.44 -7.2 7.2 -7.2 z M255.59099999999998 18.12 c2.58 0 4.92 -2.12 4.92 -5.12 s-2.34 -5.12 -4.92 -5.12 s-4.92 2.12 -4.92 5.12 s2.34 5.12 4.92 5.12 z M272.31399999999996 5.76 c2.3 0 3.88 1.48 4.54 2.92 l-1.64 0.94 c-0.7 -1.18 -1.6 -1.9 -2.9 -1.9 s-2.22 0.76 -2.22 1.8 c0 0.98 0.62 1.58 1.96 2.08 l0.98 0.36 c2.78 1.02 4.2 2.22 4.2 4.32 c0 2.58 -2.46 4.02 -4.84 4.02 c-2.44 0 -4.4 -1.46 -5 -3.44 l1.72 -0.88 c0.5 1.28 1.58 2.32 3.28 2.32 c1.4 0 2.56 -0.74 2.56 -2 c0 -1.34 -0.9 -1.88 -2.5 -2.48 l-0.96 -0.36 c-2.1 -0.78 -3.58 -1.84 -3.58 -4.02 c0 -2.12 1.92 -3.68 4.4 -3.68 z M284.33699999999993 17.96 l6.34 0 l0 2.04 l-6.74 0 l-1.8 0 l0 -14 l2.2 0 l6.16 0 l0 2.04 l-6.16 0 l0 3.92 l4.74 0 l0 2 l-4.74 0 l0 4 z M294.5799999999999 22.64 l1.7 -4.84 l1.9 0 l-1.76 4.84 l-1.84 0 z M313.7859999999999 6 l0 14 l-2.2 0 l0 -14 l2.2 0 z M328.6889999999999 6 l2.2 0 l0 14 l-1.68 0 l-7.82 -9.98 l0 9.98 l-2.2 0 l0 -14 l1.7 0 l7.8 10 l0 -10 z M347.5519999999999 6 l2.34 0 l-6.24 14 l-1.92 0 l-6.24 -14 l2.34 0 l4.86 11.22 z M356.6949999999999 17.96 l6.34 0 l0 2.04 l-6.74 0 l-1.8 0 l0 -14 l2.2 0 l6.16 0 l0 2.04 l-6.16 0 l0 3.92 l4.74 0 l0 2 l-4.74 0 l0 4 z M372.5579999999999 5.76 c2.3 0 3.88 1.48 4.54 2.92 l-1.64 0.94 c-0.7 -1.18 -1.6 -1.9 -2.9 -1.9 s-2.22 0.76 -2.22 1.8 c0 0.98 0.62 1.58 1.96 2.08 l0.98 0.36 c2.78 1.02 4.2 2.22 4.2 4.32 c0 2.58 -2.46 4.02 -4.84 4.02 c-2.44 0 -4.4 -1.46 -5 -3.44 l1.72 -0.88 c0.5 1.28 1.58 2.32 3.28 2.32 c1.4 0 2.56 -0.74 2.56 -2 c0 -1.34 -0.9 -1.88 -2.5 -2.48 l-0.96 -0.36 c-2.1 -0.78 -3.58 -1.84 -3.58 -4.02 c0 -2.12 1.92 -3.68 4.4 -3.68 z M391.02099999999984 6 l0 2.04 l-3.72 0 l0 11.96 l-2.2 0 l0 -11.96 l-3.72 0 l0 -2.04 l9.64 0 z M423.7869999999998 6 l-4.56 14 l-1.52 0 l-3.6 -10.04 l-3.6 10.04 l-1.52 0 l-4.56 -14 l2.3 0 l3.1 9.6 l3.46 -9.6 l1.64 0 l3.46 9.6 l3.1 -9.6 l2.3 0 z M430.7899999999998 6 l0 14 l-2.2 0 l0 -14 l2.2 0 z M445.4329999999998 6 l0 2.04 l-3.72 0 l0 11.96 l-2.2 0 l0 -11.96 l-3.72 0 l0 -2.04 l9.64 0 z M459.1159999999998 6 l2.2 0 l0 14 l-2.2 0 l0 -5.92 l-6.48 0 l0 5.92 l-2.2 0 l0 -14 l2.2 0 l0 6.04 l6.48 0 l0 -6.04 z M484.24199999999985 8 l-6.26 0 l0 4.02 l5.16 0 l0 1.88 l-5.16 0 l0 6.1 l-2.26 0 l0 -14 l8.52 0 l0 2 z M499.0049999999998 20 l-1.28 -2.96 l-7.16 0 l-1.28 2.96 l-2.34 0 l6.24 -14 l1.92 0 l6.24 14 l-2.34 0 z M491.36499999999984 15.219999999999999 l5.56 0 l-2.78 -6.44 z M508.1479999999998 6 l0 14 l-2.2 0 l0 -14 l2.2 0 z M522.7909999999998 6 l0 2.04 l-3.72 0 l0 11.96 l-2.2 0 l0 -11.96 l-3.72 0 l0 -2.04 l9.64 0 z M536.4739999999998 6 l2.2 0 l0 14 l-2.2 0 l0 -5.92 l-6.48 0 l0 5.92 l-2.2 0 l0 -14 l2.2 0 l0 6.04 l6.48 0 l0 -6.04 z"/></g>
			</g>
		</svg>
	